<svg width="30" height="30" viewBox="0 0 30 30" fill="none" xmlns="http://www.w3.org/2000/svg">
<path fill-rule="evenodd" clip-rule="evenodd" d="M5.2778 4.53749H24.7222C25.0446 4.53749 25.3537 4.65997 25.5816 4.87798C25.8095 5.09599 25.9375 5.39167 25.9375 5.69999V24.3C25.9375 24.6083 25.8095 24.904 25.5816 25.122C25.3537 25.34 25.0446 25.4625 24.7222 25.4625H5.2778C4.95549 25.4625 4.64638 25.34 4.41847 25.122C4.19056 24.904 4.06252 24.6083 4.06252 24.3V5.69999C4.06252 5.39167 4.19056 5.09599 4.41847 4.87798C4.64638 4.65997 4.95549 4.53749 5.2778 4.53749ZM0.416687 5.69999C0.416687 4.46673 0.928838 3.28399 1.84047 2.41194C2.75211 1.5399 3.98855 1.04999 5.2778 1.04999H24.7222C26.0115 1.04999 27.2479 1.5399 28.1596 2.41194C29.0712 3.28399 29.5834 4.46673 29.5834 5.69999V24.3C29.5834 25.5332 29.0712 26.716 28.1596 27.588C27.2479 28.4601 26.0115 28.95 24.7222 28.95H5.2778C3.98855 28.95 2.75211 28.4601 1.84047 27.588C0.928838 26.716 0.416687 25.5332 0.416687 24.3V5.69999ZM15 21.975C14.5166 21.975 14.0529 21.7913 13.711 21.4643C13.3692 21.1372 13.1771 20.6937 13.1771 20.2312V16.7437H9.53127C9.0478 16.7437 8.58414 16.56 8.24227 16.233C7.90041 15.906 7.70835 15.4625 7.70835 15C7.70835 14.5375 7.90041 14.094 8.24227 13.767C8.58414 13.44 9.0478 13.2562 9.53127 13.2562H13.1771V9.76874C13.1771 9.30627 13.3692 8.86274 13.711 8.53572C14.0529 8.2087 14.5166 8.02499 15 8.02499C15.4835 8.02499 15.9472 8.2087 16.289 8.53572C16.6309 8.86274 16.8229 9.30627 16.8229 9.76874V13.2562H20.4688C20.9522 13.2562 21.4159 13.44 21.7578 13.767C22.0996 14.094 22.2917 14.5375 22.2917 15C22.2917 15.4625 22.0996 15.906 21.7578 16.233C21.4159 16.56 20.9522 16.7437 20.4688 16.7437H16.8229V20.2312C16.8229 20.6937 16.6309 21.1372 16.289 21.4643C15.9472 21.7913 15.4835 21.975 15 21.975Z" fill="black"/>
</svg>
