<svg width="30" height="30" viewBox="0 0 30 30" fill="none" xmlns="http://www.w3.org/2000/svg">
<g clip-path="url(#clip0_56_82)">
<path d="M29.3794 27.0427L22.844 20.5046C24.8035 17.9511 25.7184 14.7479 25.403 11.5447C25.0876 8.34151 23.5656 5.37823 21.1457 3.25596C18.7258 1.1337 15.5892 0.0113699 12.3723 0.116653C9.15531 0.221937 6.09885 1.54695 3.8229 3.8229C1.54695 6.09885 0.221937 9.15531 0.116653 12.3723C0.0113699 15.5892 1.1337 18.7258 3.25596 21.1457C5.37823 23.5656 8.34151 25.0876 11.5447 25.403C14.7479 25.7184 17.9511 24.8035 20.5046 22.844L27.0454 29.3863C27.199 29.5399 27.3814 29.6617 27.5821 29.7448C27.7828 29.828 27.9979 29.8708 28.2152 29.8708C28.4324 29.8708 28.6475 29.828 28.8482 29.7448C29.0489 29.6617 29.2313 29.5399 29.3849 29.3863C29.5385 29.2326 29.6603 29.0503 29.7435 28.8496C29.8266 28.6489 29.8694 28.4338 29.8694 28.2165C29.8694 27.9993 29.8266 27.7842 29.7435 27.5835C29.6603 27.3828 29.5385 27.2004 29.3849 27.0468L29.3794 27.0427ZM3.44038 12.7982C3.44038 10.9474 3.98921 9.13815 5.01745 7.59926C6.0457 6.06038 7.50719 4.86097 9.2171 4.1527C10.927 3.44443 12.8086 3.25912 14.6238 3.62019C16.439 3.98126 18.1064 4.8725 19.4151 6.18122C20.7239 7.48993 21.6151 9.15733 21.9762 10.9726C22.3372 12.7878 22.1519 14.6693 21.4437 16.3793C20.7354 18.0892 19.536 19.5507 17.9971 20.5789C16.4582 21.6072 14.649 22.156 12.7982 22.156C10.3171 22.1534 7.93841 21.1667 6.18403 19.4123C4.42966 17.6579 3.44293 15.2792 3.44038 12.7982Z" fill="black"/>
</g>
<defs>
<clipPath id="clip0_56_82">
<rect width="30" height="30" fill="white"/>
</clipPath>
</defs>
</svg>
