<svg width="40" height="40" viewBox="0 0 40 40" fill="none" xmlns="http://www.w3.org/2000/svg">
<path fill-rule="evenodd" clip-rule="evenodd" d="M23.7983 3.58668C23.1817 3.33334 22.3983 3.33334 20.8333 3.33334C19.2683 3.33334 18.485 3.33334 17.8683 3.58668C17.0474 3.92369 16.394 4.57295 16.0517 5.39168C15.895 5.76334 15.835 6.19834 15.81 6.83001C15.7989 7.28768 15.6712 7.73496 15.4391 8.12954C15.2069 8.52413 14.878 8.85298 14.4833 9.08501C14.0812 9.30852 13.6292 9.42692 13.1692 9.42925C12.7092 9.43158 12.256 9.31776 11.8517 9.09834C11.2883 8.80168 10.88 8.63834 10.4767 8.58501C9.59426 8.46915 8.70179 8.70634 7.99334 9.24501C7.46334 9.64834 7.07167 10.3217 6.29001 11.6667C5.50667 13.0117 5.11667 13.6833 5.02834 14.3417C4.91167 15.2183 5.15167 16.105 5.69501 16.8067C5.94167 17.1267 6.29001 17.395 6.82834 17.7317C7.62334 18.2267 8.13334 19.07 8.13334 20C8.13334 20.93 7.62334 21.7733 6.83001 22.2667C6.29001 22.605 5.94167 22.8733 5.69334 23.1933C5.42514 23.5399 5.22829 23.9362 5.11415 24.3593C5.00001 24.7824 4.97084 25.2239 5.02834 25.6583C5.11667 26.315 5.50667 26.9883 6.29001 28.3333C7.07334 29.6783 7.46334 30.35 7.99334 30.755C8.70001 31.2933 9.59334 31.53 10.4767 31.415C10.88 31.3617 11.2883 31.1983 11.8517 30.9017C12.2562 30.682 12.7097 30.568 13.1701 30.5703C13.6304 30.5726 14.0827 30.6912 14.485 30.915C15.295 31.3817 15.775 32.24 15.81 33.17C15.835 33.8033 15.895 34.2367 16.0517 34.6083C16.3917 35.425 17.045 36.075 17.8683 36.4133C18.485 36.6667 19.2683 36.6667 20.8333 36.6667C22.3983 36.6667 23.1817 36.6667 23.7983 36.4133C24.6193 36.0763 25.2727 35.4271 25.615 34.6083C25.7717 34.2367 25.8317 33.8033 25.8567 33.17C25.89 32.24 26.3717 31.38 27.1833 30.915C27.5854 30.6915 28.0374 30.5731 28.4975 30.5708C28.9575 30.5684 29.4107 30.6823 29.815 30.9017C30.3783 31.1983 30.7867 31.3617 31.19 31.415C32.0733 31.5317 32.9667 31.2933 33.6733 30.755C34.2033 30.3517 34.595 29.6783 35.3767 28.3333C36.16 26.9883 36.55 26.3167 36.6383 25.6583C36.6956 25.2238 36.6662 24.7822 36.5517 24.3591C36.4373 23.936 36.2402 23.5398 35.9717 23.1933C35.725 22.8733 35.3767 22.605 34.8383 22.2683C34.0433 21.7733 33.5333 20.93 33.5333 20C33.5333 19.07 34.0433 18.2267 34.8367 17.7333C35.3767 17.395 35.725 17.1267 35.9733 16.8067C36.2415 16.4601 36.4384 16.0638 36.5525 15.6407C36.6667 15.2176 36.6958 14.7761 36.6383 14.3417C36.55 13.685 36.16 13.0117 35.3767 11.6667C34.5933 10.3217 34.2033 9.65001 33.6733 9.24501C32.9649 8.70634 32.0724 8.46915 31.19 8.58501C30.7867 8.63834 30.3783 8.80168 29.815 9.09834C29.4105 9.31806 28.957 9.43204 28.4966 9.42971C28.0363 9.42738 27.584 9.30881 27.1817 9.08501C26.7873 8.85278 26.4587 8.52383 26.2269 8.12926C25.995 7.73469 25.8676 7.28752 25.8567 6.83001C25.8317 6.19668 25.7717 5.76334 25.615 5.39168C25.4456 4.98624 25.198 4.61815 24.8862 4.30844C24.5745 3.99873 24.2049 3.75347 23.7983 3.58668ZM20.8333 25C23.6167 25 25.8717 22.7617 25.8717 20C25.8717 17.2383 23.615 15 20.8333 15C18.05 15 15.795 17.2383 15.795 20C15.795 22.7617 18.0517 25 20.8333 25Z" fill="black"/>
</svg>
