<svg width="282" height="73" viewBox="0 0 282 73" fill="none" xmlns="http://www.w3.org/2000/svg">
<path d="M14.941 0.450996C9.18704 2.639 2.86242 8.8125 0.864733 16.5675C-1.66556 26.39 8.86208 30.545 9.72625 29.1845C10.7424 27.584 7.83983 27.043 7.24223 21.946C6.47003 15.363 9.84137 8.0075 14.0846 4.78C14.8722 4.18 14.8353 5.015 14.8353 6.5585C14.8353 9.319 14.6673 34.101 14.6673 39.273C14.6673 46.271 14.349 48.481 13.7767 50.665C13.1978 52.8775 12.2659 54.373 12.9715 54.949C13.7602 55.593 17.1277 54.0605 19.0769 51.591C21.4144 48.629 22.2328 45.071 22.3799 41.2085C22.5573 36.5515 22.5495 29.1615 22.5573 24.9465C22.5639 21.081 22.6289 9.7615 22.4823 2.9565C22.4465 1.2865 17.3474 -0.464504 14.941 0.450996ZM219.249 33.2025C219.064 36.841 218.177 39.6845 217.076 41.6905C214.944 45.574 210.521 46.7795 208.643 41.1975C207.62 38.1545 207.572 33.0725 208.307 28.826C209.056 24.5005 211.148 21.2335 214.611 21.528C218.027 21.8195 219.626 25.8145 219.249 33.2025ZM161.665 55.7755C161.619 61.8205 160.571 67.1205 158.324 68.6605C155.136 70.8435 150.851 69.2055 151.739 64.7945C152.523 60.891 156.236 56.9045 161.675 52.0335C161.675 52.0335 161.686 53.1445 161.665 55.7755ZM160.795 33.167C160.6 36.481 159.654 39.8095 158.621 41.6905C156.49 45.574 152.035 46.788 150.189 41.1975C148.926 37.3775 149.229 32.4345 149.853 29.3195C150.663 25.278 152.629 21.5285 156.156 21.5285C159.587 21.5285 161.279 24.945 160.795 33.167ZM127.437 33.117C127.228 36.626 126.474 39.5595 125.264 41.6905C123.074 45.5475 118.741 46.7705 116.831 41.1975C115.454 37.179 115.922 31.7 116.495 28.74C117.346 24.3475 119.475 21.2335 122.799 21.5285C126.213 21.8315 127.873 25.815 127.437 33.117ZM280.308 37.216C279.474 37.216 279.092 37.997 278.777 39.311C277.685 43.883 276.535 44.9145 275.054 44.9145C273.399 44.9145 271.912 42.6515 271.529 38.1205C271.229 34.5575 271.277 27.9985 271.661 21.474C271.74 20.1335 271.332 18.807 267.372 17.501C265.668 16.939 263.19 16.1115 261.957 18.8145C258.472 26.4515 257.108 32.5145 256.787 34.9765C256.77 35.104 256.598 35.1305 256.568 34.8325C256.363 32.86 255.907 29.275 255.849 21.744C255.838 20.2745 255.496 19.024 253.709 18C252.55 17.335 249.03 16.16 247.762 17.5585C246.664 18.7015 245.392 21.7785 244.07 25.4265C242.996 28.3915 242.248 30.3965 242.248 30.3965C242.248 30.3965 242.263 22.3975 242.275 19.363C242.281 18.2185 241.416 17.837 241.155 17.768C239.982 17.459 237.669 16.9425 236.687 16.9425C235.476 16.9425 235.179 17.5565 235.179 18.4525C235.179 18.57 234.988 28.984 234.988 36.266C234.988 36.5825 234.988 36.9275 234.99 37.2945C234.32 40.6415 232.147 45.1845 229.784 45.1845C227.418 45.1845 226.302 43.2855 226.302 34.604C226.302 29.5395 226.47 27.337 226.552 23.674C226.6 21.564 226.692 19.944 226.687 19.5765C226.669 18.449 224.522 17.8805 223.522 17.6705C222.518 17.459 221.646 17.3765 220.965 17.412C220 17.462 219.318 18.0355 219.318 18.8255C219.318 19.2495 219.323 20.0545 219.323 20.0545C218.081 18.2825 216.084 17.0495 214.755 16.692C211.174 15.727 207.439 16.582 204.621 20.1615C202.382 23.005 201.032 26.2265 200.5 30.854C200.112 34.2375 200.239 37.668 200.929 40.5695C200.095 43.8435 198.547 45.1845 196.851 45.1845C194.389 45.1845 192.604 41.5375 192.811 35.2285C192.948 31.079 193.863 28.167 194.863 23.954C195.289 22.158 194.942 21.218 194.074 20.317C193.277 19.4905 191.579 19.068 189.139 19.587C187.401 19.9575 184.915 20.356 182.641 20.662C182.641 20.662 182.778 20.1645 182.891 19.2885C183.482 14.6935 177.982 15.066 176.226 16.5335C175.179 17.41 174.466 18.4435 174.196 20.3015C173.766 23.2505 176.415 24.6415 176.415 24.6415C175.547 28.2535 173.416 32.9715 171.216 36.383C170.038 38.2105 169.137 39.565 167.973 41.0045C167.935 35.2276 167.976 29.4505 168.097 23.6745C168.145 21.5645 168.238 19.9875 168.233 19.6195C168.22 18.7955 167.69 18.4835 166.587 18.0895C165.611 17.7405 164.457 17.4995 163.26 17.4145C161.75 17.3085 160.84 18.035 160.864 18.895C160.869 19.0575 160.869 20.0545 160.869 20.0545C159.627 18.2825 157.629 17.0495 156.3 16.692C152.72 15.727 148.985 16.582 146.167 20.1615C143.928 23.005 142.462 26.996 142.046 30.819C141.659 34.3815 141.73 37.409 142.258 39.96C141.689 42.514 140.052 45.185 138.202 45.185C135.836 45.185 134.49 43.2855 134.49 34.604C134.49 29.5395 134.657 27.337 134.74 23.674C134.788 21.5645 134.88 19.944 134.875 19.5765C134.857 18.449 132.71 17.881 131.71 17.6705C130.665 17.4505 129.762 17.3705 129.068 17.417C128.154 17.4785 127.511 18.222 127.511 18.7765V20.0545C126.269 18.2825 124.271 17.0495 122.942 16.692C119.362 15.727 115.648 16.596 112.809 20.1615C110.958 22.486 109.46 25.063 108.688 30.768C108.465 32.4165 108.367 33.961 108.38 35.4035C107.642 39.5015 104.381 44.2245 101.715 44.2245C100.155 44.2245 98.6681 41.4765 98.6681 35.621C98.6681 27.821 99.2001 16.715 99.2904 15.645C99.2904 15.645 102.66 15.593 103.312 15.586C104.993 15.569 106.514 15.6055 108.753 15.501C109.876 15.4495 110.958 11.791 109.799 11.3385C109.273 11.1335 105.562 10.9545 104.09 10.926C102.853 10.901 99.4083 10.669 99.4083 10.669C99.4083 10.669 99.7173 3.2975 99.7895 2.519C99.85 1.8695 98.9247 1.5355 98.3949 1.333C97.1049 0.837995 95.9511 0.600496 94.5835 0.344496C92.6932 -0.00950448 91.8362 0.336995 91.6687 1.7845C91.4165 3.982 91.2859 10.4185 91.2859 10.4185C89.8991 10.4185 85.1613 10.1725 83.7744 10.1725C82.4856 10.1725 81.0943 15.2045 82.8766 15.2665C84.9266 15.3385 88.4995 15.4015 90.8679 15.4655C90.8679 15.4655 90.7621 26.7545 90.7621 30.2405C90.7621 30.6105 90.7644 30.968 90.7666 31.3145C89.4629 37.482 84.8715 40.814 84.8715 40.814C85.8574 36.7335 83.8432 33.669 80.2152 31.075C78.8785 30.1195 76.2397 28.31 73.2875 26.327C73.2875 26.327 74.9971 24.797 76.514 21.719C77.588 19.538 77.6348 17.0435 74.9971 16.493C70.6394 15.583 67.0466 18.4885 65.9748 21.5905C65.1442 23.9935 65.587 25.776 67.214 27.628C67.3325 27.7635 67.4619 27.902 67.5941 28.041C66.6109 29.762 65.2593 32.0795 64.1148 33.8765C60.9379 38.8665 58.5381 42.8125 56.7244 42.8125C55.2748 42.8125 55.294 38.8055 55.294 35.054C55.294 31.82 55.5573 26.9575 55.7677 21.924C55.8371 20.259 54.9195 19.3105 53.3828 18.4515C52.4487 17.9295 50.4554 16.9035 49.301 16.9035C47.5726 16.9035 42.587 17.117 37.8767 29.487C37.2829 31.046 36.1164 33.887 36.1164 33.887L36.2172 19.0115C36.2172 18.6625 36.0123 18.3255 35.5436 18.095C34.7499 17.7035 32.6299 16.9035 30.7446 16.9035C29.8468 16.9035 29.398 17.2825 29.398 18.0385L29.2338 41.3115C29.2338 43.08 29.2845 45.143 29.4773 46.045C29.6689 46.948 29.9801 47.683 30.3646 48.12C30.7496 48.5565 31.1941 48.89 31.9271 49.027C32.6096 49.1545 36.3461 49.59 36.5405 48.294C36.7729 46.74 36.7823 45.06 38.7442 38.793C41.7988 29.036 45.7809 24.276 47.6536 22.585C47.9813 22.29 48.3547 22.272 48.3366 22.7555C48.2573 24.8945 47.9758 30.2405 47.7869 34.7805C47.2796 46.933 49.7146 49.1855 53.195 49.1855C55.8575 49.1855 59.6105 46.784 63.6334 40.705C65.875 37.3173 68.1062 33.9239 70.3271 30.525C71.5459 31.5495 72.9146 32.652 74.2817 33.83C77.4597 36.568 78.5029 39.17 77.8105 41.638C77.2818 43.5245 75.2874 45.469 71.7387 43.5795C70.7043 43.028 70.2626 42.6015 69.2227 41.98C68.6643 41.6465 67.8111 41.5465 67.2994 41.8965C65.9709 42.8055 65.2109 43.9625 64.7768 45.3945C64.3549 46.788 65.8922 47.5245 67.4861 48.169C68.8581 48.7235 71.8076 49.226 73.6879 49.283C81.0161 49.5055 86.8868 46.071 90.9736 37.2115C91.7051 44.863 94.8181 49.1925 100.227 49.1925C103.844 49.1925 107.47 44.949 109.055 40.7745C109.51 42.476 110.184 43.956 111.055 45.2075C115.222 51.2025 123.308 49.9125 127.369 44.8215C128.625 43.2485 128.816 42.6835 128.816 42.6835C129.409 47.49 133.673 49.1695 136.114 49.1695C138.849 49.1695 141.671 47.996 143.65 43.952C143.882 44.391 144.136 44.8105 144.412 45.2075C148.58 51.2025 156.666 49.9125 160.727 44.8215C160.919 44.5825 161.085 44.3665 161.23 44.1715L161.349 47.329L157.61 50.4425C151.342 55.6575 146.581 59.6125 146.231 64.219C145.785 70.0925 151.029 72.2755 155.003 72.5615C159.214 72.865 162.828 70.751 165.045 67.7925C166.997 65.188 168.275 59.583 168.181 54.0475C168.144 51.8305 168.082 49.012 168.034 45.9905C170.234 43.671 172.713 40.739 174.996 37.308C177.483 33.5685 180.149 28.5465 181.514 24.638C181.514 24.638 183.83 24.6565 186.302 24.5095C187.092 24.4625 187.32 24.6095 187.173 25.135C186.997 25.771 184.05 36.0875 186.74 42.96C188.58 47.665 192.729 49.178 195.189 49.178C198.069 49.178 200.823 47.204 202.299 44.273C202.478 44.5995 202.663 44.9155 202.867 45.208C207.034 51.203 215.092 49.9045 219.182 44.8215C220.105 43.6745 220.629 42.6835 220.629 42.6835C221.506 47.6585 225.768 49.195 228.209 49.195C230.751 49.195 233.165 48.2485 235.122 44.043C235.205 45.895 235.333 47.409 235.537 47.886C235.661 48.1785 236.383 48.5445 236.909 48.7215C239.235 49.5045 241.607 49.1345 242.485 48.9735C243.093 48.8615 243.567 48.4185 243.632 47.2755C243.803 44.273 243.698 39.2285 244.701 35.479C246.383 29.1875 247.953 26.747 248.698 25.539C249.115 24.8615 249.585 24.75 249.602 25.4665C249.637 26.9165 249.717 31.173 250.369 36.893C250.848 41.099 251.487 43.5855 251.979 44.373C253.382 46.623 255.114 46.7295 256.525 46.7295C257.423 46.7295 259.3 46.5045 259.132 45.0725C259.05 44.3745 259.193 40.0605 260.853 33.862C261.936 29.814 263.743 26.157 264.394 24.8195C264.635 24.3265 264.747 24.715 264.742 24.791C264.605 27.5785 264.297 36.6965 265.548 41.6835C267.245 48.439 272.15 49.195 273.859 49.195C277.509 49.195 280.494 46.675 281.499 40.044C281.741 38.448 281.383 37.216 280.308 37.216Z" fill="#FCFCFC"/>
</svg>
